# xmcd
#
# Track frame offsets:
#	150
#	14962
#	31535
#	45612
#	61523
#	77084
#	91040
#	106109
#	121384
#	136453
#	152383
#	166279
#	179994
#	193300
#	210329
#	225617
#	241371
#
# Disc length: 3396 seconds
#
# Revision: 1
# Processed by: cddbd v1.5.1PL2 Copyright (c) Steve Scherf et al.
# Submitted via: audiograbber 1.82.01
#
DISCID=d60d4211
DTITLE=Frutamel - Volume 5
DYEAR=2005
DGENRE=Tribal
TTITLE0=A Rifa
TTITLE1=Vou Te Amar
TTITLE2=Bye Bye My Love
TTITLE3=Ai Morena
TTITLE4=Não Toque Mais Em Mim
TTITLE5=Vou Encontrar Outro Alguem
TTITLE6=Seu Amor é Meu
TTITLE7=Dê Um Gemidinho
TTITLE8=Rasgue A Calcinha
TTITLE9=Pega Pega
TTITLE10=500 Corações
TTITLE11=Meu Anjo Azul
TTITLE12=Maria Dolores
TTITLE13=Não Pensa Em Mim
TTITLE14=Amor Ou Paixão
TTITLE15=Tô Atoa
TTITLE16=Acorrentado Em Você
EXTD=
EXTT0=
EXTT1=
EXTT2=
EXTT3=
EXTT4=
EXTT5=
EXTT6=
EXTT7=
EXTT8=
EXTT9=
EXTT10=
EXTT11=
EXTT12=
EXTT13=
EXTT14=
EXTT15=
EXTT16=
PLAYORDER=
